{"title":"Flip or Flop S05E02 Cat Nip Flip 720p WEBRip H 264-BTCHKEK mp4","uid":14976702,"size":526091817,"categoryP":"video","categoryS":"hd___tv_shows","magnet":"?xt=urn:btih:96e8c72ff08be30dae2c01d4ce9f4d2561862ff5&amp;dn=Flip+or+Flop+S05E02+Cat+Nip+Flip+720p+WEBRip+H+264-BTCHKEK+mp4&amp;tr=udp%3A%2F%2Ftracker.leechers-paradise.org%3A6969&amp;tr=udp%3A%2F%2Fzer0day.ch%3A1337&amp;tr=udp%3A%2F%2Fopen.demonii.com%3A1337&amp;tr=udp%3A%2F%2Ftracker.coppersurfer.tk%3A6969&amp;tr=udp%3A%2F%2Fexodus.desync.com%3A6969","seeders":6,"leechers":0,"uploader":"Anon_up","files":1,"time":1466241357,"description":"[center][img]http://i.imgur.com/8GExYo0.jpg[/img]\r\n\r\nSubs\r\n\r\n\r\n[color=&quot;green&quot;][i]Cat Nip Flip\r\n\r\nTarek and Christina buy a house sight unseen in La Palma, CA. Can they make a profit on a house with only the unknown lurking behind the front door?[/i][/color]\r\n\r\n[spoiler=&quot;MediaInfo&quot;]\r\n\r\nGeneral \r\nComplete name : Flip.or.Flop.S05E02.Cat.Nip.Flip.720p.WEBRip.H.264-BTCHKEK.mp4 \r\nFormat : MPEG-4 \r\nFormat profile : Base Media \r\nCodec ID : isom (isom/iso2/avc1/mp41) \r\nFile size : 502 MiB \r\nDuration : 21mn 35s \r\nOverall bit rate mode : Constant \r\nOverall bit rate : 3 249 Kbps \r\nLaw rating : TV-G \r\nWriting application : Lavf54.63.104 \r\n\r\nVideo \r\nID : 1 \r\nFormat : AVC \r\nFormat/Info : Advanced Video Codec \r\nFormat profile :    \r\nFormat settings, CABAC : No \r\nFormat settings, ReFrames : 4 frames \r\nFormat settings, GOP : M=1, N=60 \r\nCodec ID : avc1 \r\nCodec ID/Info : Advanced Video Coding \r\nDuration : 21mn 35s \r\nBit rate mode : Constant \r\nBit rate : 3 120 Kbps \r\nWidth : 1 280 pixels \r\nHeight : 720 pixels \r\nDisplay aspect ratio : 16:9 \r\nFrame rate mode : Variable \r\nFrame rate : 29.970 (30000/1001) fps \r\nMinimum frame rate : 29.970 fps \r\nMaximum frame rate : 30.000 fps \r\nStandard : NTSC \r\nColor space : YUV \r\nChroma subsampling : 4:2:0 \r\nBit depth : 8 bits \r\nScan type : Progressive \r\nBits/(Pixel*Frame) : 0.113 \r\nStream size : 481 MiB (96%) \r\nColor range : Limited \r\n\r\nAudio \r\nID : 2 \r\nFormat : AAC \r\nFormat/Info : Advanced Audio Codec \r\nFormat profile : LC \r\nCodec ID : 40 \r\nDuration : 21mn 35s \r\nBit rate mode : Constant \r\nBit rate : 126 Kbps \r\nChannel(s) : 2 channels \r\nChannel positions : Front: L R \r\nSampling rate : 44.1 KHz \r\nFrame rate : 43.066 fps (1024 spf) \r\nCompression mode : Lossy \r\nStream size : 19.4 MiB (4%) \r\nLanguage : English \r\nDefault : Yes \r\nAlternate group : 1 \r\n\r\nText #1 \r\nID : 1-CC1 \r\nFormat : EIA-608 \r\nMuxing mode : SCTE 128 / DTVCC Transport \r\nMuxing mode, more info : Muxed in Video #1 \r\nDuration : 21mn 35s \r\nBit rate mode : Constant \r\nStream size : 0.00 Byte (0%) \r\nEncoded stream size : 0.00 Byte (0%) \r\n\r\nText #2 \r\nID : 1-CC3 \r\nFormat : EIA-608 \r\nMuxing mode : SCTE 128 / DTVCC Transport \r\nMuxing mode, more info : Muxed in Video #1 \r\nDuration : 21mn 35s \r\nBit rate mode : Constant \r\nStream size : 0.00 Byte (0%) \r\nEncoded stream size : 0.00 Byte (0%) \r\n\r\nText #3 \r\nID : 1-1 \r\nFormat : EIA-708 \r\nMuxing mode : SCTE 128 / DTVCC Transport \r\nMuxing mode, more info : Muxed in Video #1 \r\nDuration : 21mn 35s \r\nBit rate mode : Constant \r\nStream size : 0.00 Byte (0%) \r\nEncoded stream size : 0.00 Byte (0%) \r\n\r\nText #4 \r\nID : 1-2 \r\nFormat : EIA-708 \r\nMuxing mode : SCTE 128 / DTVCC Transport \r\nMuxing mode, more info : Muxed in Video #1 \r\nDuration : 21mn 35s \r\nBit rate mode : Constant \r\nStream size : 0.00 Byte (0%) \r\nEncoded stream size : 0.00 Byte (0%) \r\n\r\n\r\n[/spoiler]\r\n\r\n[/center]","torrent":{"xt":"urn:btih:96e8c72ff08be30dae2c01d4ce9f4d2561862ff5","amp;dn":"Flip+or+Flop+S05E02+Cat+Nip+Flip+720p+WEBRip+H+264-BTCHKEK+mp4","amp;tr":["udp%3A%2F%2Ftracker.leechers-paradise.org%3A6969","udp%3A%2F%2Fzer0day.ch%3A1337","udp%3A%2F%2Fopen.demonii.com%3A1337","udp%3A%2F%2Ftracker.coppersurfer.tk%3A6969","udp%3A%2F%2Fexodus.desync.com%3A6969"],"infoHash":"96e8c72ff08be30dae2c01d4ce9f4d2561862ff5","infoHashBuffer":{"type":"Buffer","data":[150,232,199,47,240,139,227,13,174,44,1,212,206,159,77,37,97,134,47,245]},"announce":[],"urlList":[]}}